<?xml version="1.0" encoding="UTF-8"?>
<svg width="20px" height="20px" viewBox="0 0 20 20" version="1.1" xmlns="http://www.w3.org/2000/svg">
    <g stroke="none" stroke-width="1" fill="none" fill-rule="evenodd">
        <g transform="translate(1, 1)" fill="#000000" fill-rule="nonzero">
            <path d="M9,0 C4.03,0 0,4.03 0,9 C0,13.97 4.03,18 9,18 C13.97,18 18,13.97 18,9 C18,4.03 13.97,0 9,0 ZM16.2,5.4 L13.5,5.4 C13.14,4.14 12.6,2.97 11.88,1.98 C13.68,2.52 15.12,3.78 16.2,5.4 ZM9,1.8 C9.99,1.8 10.89,3.06 11.43,4.95 C11.97,6.84 12.15,9.03 11.88,11.07 C11.34,10.98 10.71,10.8 10.08,10.8 C9.45,10.8 8.82,10.89 8.28,11.07 C8.01,9.03 8.19,6.84 8.73,4.95 C9.27,3.06 10.17,1.8 9,1.8 ZM6.12,1.98 C5.4,2.97 4.86,4.14 4.5,5.4 L1.8,5.4 C2.88,3.78 4.32,2.52 6.12,1.98 ZM1.44,7.2 L4.5,7.2 C4.41,7.83 4.32,8.46 4.32,9.09 C4.32,9.72 4.41,10.35 4.5,10.98 L1.44,10.98 C1.26,10.35 1.17,9.72 1.17,9.09 C1.17,8.46 1.26,7.83 1.44,7.2 ZM1.8,12.78 L4.5,12.78 C4.86,14.04 5.4,15.21 6.12,16.2 C4.32,15.66 2.88,14.4 1.8,12.78 ZM9,16.38 C8.01,16.38 7.11,15.12 6.57,13.23 C6.03,11.34 5.85,9.15 6.12,7.11 C6.66,7.2 7.29,7.38 7.92,7.38 C8.55,7.38 9.18,7.29 9.72,7.11 C9.99,9.15 9.81,11.34 9.27,13.23 C8.73,15.12 7.83,16.38 9,16.38 ZM11.88,16.2 C12.6,15.21 13.14,14.04 13.5,12.78 L16.2,12.78 C15.12,14.4 13.68,15.66 11.88,16.2 ZM16.56,10.98 L13.5,10.98 C13.59,10.35 13.68,9.72 13.68,9.09 C13.68,8.46 13.59,7.83 13.5,7.2 L16.56,7.2 C16.74,7.83 16.83,8.46 16.83,9.09 C16.83,9.72 16.74,10.35 16.56,10.98 Z"/>
        </g>
    </g>
</svg>
